<svg id="Layer_1" data-name="Layer 1" xmlns="http://www.w3.org/2000/svg" viewBox="0 0 1080 1080"><title>branch-icon</title><path d="M534.33,717.16c30.25,12.33,60.18,26.11,93.78,26.39,5,0,11.63-3.48,14.72-7.49,28.2-36.62,76.92-36,112.48-4.49,6.13,5.43,5.78,11.39,1.68,18-24.54,39.75-70.77,49.78-109.24,24-4.68-3.15-10.72-5.77-16.22-5.94-34.72-1.07-66.76-12.25-98.72-24.33-17.67-6.67-35.71-12.37-54.7-18.9,4.6,14.64,7.16,17.72,18.52,21.86,47,17.13,56.8,71.43,36.85,109.18-3.89,7.36-10.19,7.47-16.34,5.31-38.83-13.64-71.38-49.12-54.34-98.14,1.62-4.65.34-11.55-2-16.13C451.05,727.86,437,715.85,414.1,721c-18.84,4.21-38.11,7.22-56.29,13.39-19.36,6.58-34.61,19.85-41.85,39.7-10.4,28.53-20.49,57.21-29.43,86.22-7.11,23.08-23.44,38.13-44.44,38-23.19-.19-43.09-14.37-47-36-1.77-9.7-.49-20.68,2.14-30.34,14.49-53.17,37.14-102.7,70.06-147.08a373.2,373.2,0,0,0,50-91.43,39.29,39.29,0,0,0,2.1-19.6c-2.7-15.53-5.39-16.9-21-15.13-43,4.89-81.68-26.77-85.26-69.49-.83-9.92,5.37-13.56,13-15.63,44.5-12.16,84.28,10.2,97.62,54.35,1.74,5.78,4.75,11.18,7.18,16.76l4.37-.25c3.6-19.07,8.64-38,10.41-57.23,2.07-22.42,1.84-45.12,1.3-67.66-.12-5.15-4.35-11.9-8.74-15-41.27-29.1-38.92-80.6-11-114,2.49-3,10.64-4.74,14-3,42.89,22.66,59.75,70,32.71,111.25-1.82,2.78-3.28,6.5-3.17,9.72.66,19,1.84,37.92,2.89,57.77,8.09-5.09,15.29-9.73,17.83-20.23a69.61,69.61,0,0,1,73.68-52.74A209.24,209.24,0,0,1,488.61,397c8.64,1.73,11.36,7.65,10.27,15.94-6.69,51-48.4,75.07-86.94,65.57-5.47-1.35-13.27.74-18.14,4-17.19,11.52-26.68,28-31.28,48.55-4.92,21.94-12.74,43.22-19.34,64.78-1,3.28-2.23,6.49-3.25,9.42,22.79-14.08,44.23-30.31,68.06-41.43q68.7-32.07,139.73-59.13c31.13-11.83,53.52-31,68.25-60.36,8.78-17.49,5.5-55.38-7.72-70-2.74-3-8.17-5.07-12.35-5.07-35.82,0-56.55-37.11-48-73.47,1-4.27,10-9.41,15.42-9.47,37.83-.43,66.27,22.32,62.27,59.3-.51,4.68,1.61,9.92,3.48,14.51a157.22,157.22,0,0,0,15.66,29.69c4.63-17.9,9.51-35.75,13.62-53.78.61-2.71-2-6.54-3.83-9.38-25.32-38.85-13.22-84.87,29.48-111,3.58-2.19,13.3-.17,16.2,3.26,31.46,37.13,27.33,89.25-10.43,113.54a19.29,19.29,0,0,0-7.62,11.12,358.39,358.39,0,0,1-40.67,107.17,42.43,42.43,0,0,0-2,5.32c61.49-40.21,104.78-93.46,132.41-159.45A33.5,33.5,0,0,0,773,276.48c-12.14-45.41,16.54-79.2,51.88-93.3,8.13-3.24,14.08-.91,18.58,7.37,19.74,36.26,11.37,77-21.11,101.89-3.87,3-8,7.1-9.39,11.52-6.16,19.09-11.36,38.5-17.18,58.75,10.59-3.72,19.21-7.56,23.55-19.84,5.84-16.56,21.15-25.28,36.12-23.43,13,1.6,24,7,28.5,20.05,4.2,12.2.94,23.63-7.81,33-10.28,11-24,17.69-37.41,10.53-16.44-8.76-28.34-2.44-39.79,6.66C786,400,772.29,410.39,762.85,423.56c-35.28,49.17-78.49,89.08-131,119.08-1,.57-2,1.19-5.52,3.36,39,3.84,74.63,4.29,109.77-5.38,5.72-1.57,11.29-3.73,17-5.14,10.94-2.68,17.63-8.18,22.54-19.53,14.45-33.48,59.08-42.38,86-17.87,3.42,3.11,5.44,10.93,4.2,15.5-8.73,32.11-41,58.65-77.59,40.69-3.57-1.75-8.67-2.6-12.35-1.5-14.37,4.28-28.46,9.52-42.81,14.47,10.56,9.86,21.89,19.52,31.93,30.38,3,3.23,4,10.31,2.74,14.73-.87,3.09-7,6-11,6.46-3,.31-7.21-2.87-9.64-5.6-24.55-27.57-54.47-42.92-92.06-41.55a78.3,78.3,0,0,1-13.08-.58c-51-6.8-95.32,13.45-140,33.68-47.78,21.65-92,48.19-128.35,86.48-3.77,4-7.2,8.26-10.63,12.22,20.89-2.19,41.42-6,62-6s41,3,61.35,6c15.66,2.32,28-3.39,39.14-12.81,2.56-2.16,3.74-6.85,4.15-10.54,4.94-43.83,47.47-73.5,90.65-63.27,8.89,2.11,12.53,6.79,11.94,16-2.55,39.54-27.37,78-78.47,76.24-6.56-.22-13.22,2.48-19.83,3.83C534.13,714.26,534.23,715.71,534.33,717.16Z"/></svg>