<svg id="Layer_1" data-name="Layer 1" xmlns="http://www.w3.org/2000/svg" viewBox="0 0 1080 1080"><title>cad-icon</title><path d="M540.33,834.09v24c-19.59-1.3-39-1-57.87-4.11-83.35-13.64-153.38-52.1-207.75-116.91-58.92-70.23-86.59-151.33-78.86-243.25C204.33,393,249.72,311.72,329.47,250.2,453,154.89,628.85,159.7,747.21,260.76c86.07,73.48,124.41,167.86,120.52,279.92-1.43,41.15-12.56,80.41-28.46,118.33-3.14,7.49-7.7,10.35-16.2,10.18-29.38-.59-58.82-1.1-88.16.15-15.38.65-25.72-9.13-38.52-13.65-25.37-8.94-50.64-18.16-76.21-26.47-3.38-1.09-9.13,1.46-12.35,4.08-42.39,34.6-96.06,39.87-139.55,7.8-17.37-12.81-30.43-11.4-46.91-5.2-20.73,7.8-41.73,15-62.08,23.67C325.46,674,316.33,704,313.62,737c-.33,4,4,9.24,7.53,12.45,58.63,53.45,127.48,81.72,207.08,83.15,2.78.05,5.56.11,8.33.27C537.3,832.87,538,833.3,540.33,834.09ZM582,376.46c-3.28,1.5-8.89,4.33-14.69,6.68-28.66,11.61-58.51,13.9-88.84,10.13-11.16-1.39-18.38,0-22.25,12.47-4.64,15-15.61,25.19-30.22,31.75-4,1.8-9.63,7.26-9.22,10.31,1.34,9.76,2.29,22.64,8.68,28,10.59,8.82,15.09,19.39,20,31,4.44,10.5,9.61,21.07,16.45,30.11,35.88,47.39,95.23,56.15,135.88,4.82,10.58-13.36,16.31-30.49,24.82-45.58,3.29-5.85,7.2-12,12.38-16,16.45-12.68,16.09-34.59-1.23-44.91-4.73-2.81-9.58-6.08-13-10.24C608,409.65,595.83,393.84,582,376.46ZM426.43,409l3.16,1.19c3.13-6.53,6.59-12.91,9.31-19.6C445,375.71,452,370.8,467.83,371.18c4.36.1,8.72.48,13.08.78,37,2.55,72.94.55,104.12-23.4,7.41-5.69,14.11-2.92,17.65,6.17,3,7.74,4.57,16.29,8.8,23.25,6.73,11.08,15.13,21.14,22.83,31.63l4.1-2.08c0-16.07,1.79-32.39-.44-48.14-3-21.25-14.87-37.13-36.37-44.45a26.89,26.89,0,0,1-10.52-7.41c-19.16-21.2-43.89-25.54-70.55-23.27-33.46,2.85-58.4,21.86-79.48,45.7C420.7,353,420.77,380.82,426.43,409Zm55.32,174.29c-2.81,8.2-4,15.59-7.64,21.4-5.86,9.29-2,14,5.47,19.14,29.57,20.32,73.09,20.91,103.26.85,4.09-2.72,7.63-6.27,10.52-8.68-4.33-11.47-8.06-21.34-11.9-31.53C548.37,602.08,515.47,602.9,481.75,583.26Z"/><path d="M724.09,687.55c42.51,0,85-.09,127.52,0,21.58,0,33.48,11.42,33.59,32.67q.36,72,.06,144.1c-.12,23.35-11.11,33.61-34.84,33.64q-125.73.18-251.45.29c-27.13,0-38.29-11-38.32-38.14q-.07-68.49,0-137c.05-23.71,11.11-35.34,34.72-35.51C638.29,687.34,681.19,687.57,724.09,687.55ZM581.84,772.09c0,30.61-.09,60.26,0,89.92,0,13.07,2.74,15.72,16.32,15.74,84.14.06,168.28-.06,252.41.07,10.12,0,14.39-4.26,14.26-14.32-.34-28.15-.29-56.32-.5-84.48,0-2.2-.84-4.4-1.35-6.93Zm.26-44.41H864c2.16-15.57-1.67-19.93-16.89-19.93q-124.34,0-248.68,0C583.59,707.77,581.11,710.57,582.1,727.68Z"/><path d="M839.94,801.9l-4.17,7.88h-22l-.8,4c3.89,1.83,8.31,3,11.57,5.64,6.12,4.89,14.17,9.65,16.62,16.24,3,8-3.74,14.48-11.71,18.2-1.69.79-2.62,3.24-3.88,4.94-.87,1.16-1.73,3.36-2.54,3.34-2.4-.08-6.9-1.28-6.86-1.59,1.23-10.22-24.52-3.74-13.46-19.65h24.78l1.11-4.36c-4.62-2.07-9.83-3.36-13.71-6.37-5.52-4.28-13.05-9.26-14.12-15-.91-4.89,6-11.32,9.65-16.91,1.19-1.83,3.85-2.9,4.57-4.79,3.51-9.35,6.29-6,10.93-.48C829,796.73,834.34,798.51,839.94,801.9Z"/><path d="M646.81,796.62c0,18.16-.18,33.89.08,49.62.12,7.06-3.57,8.67-9.62,8.74-5.85.07-10-.83-9.93-8.17.19-13.81-.54-27.65,0-41.45C627.83,790.89,638.86,799.92,646.81,796.62Z"/><path d="M652.37,813c-.25-5.32-.45-9.53-.64-13.63,14.83-3.84,19.45-.78,20.26,13.63Z"/><path d="M672.07,838.87c-.54,14.62-4.69,17.52-20.25,14.44.62-4.57,1.25-9.16,2-14.44Z"/><path d="M602.43,834.25v-15.8c6.65,1,12.63,1.45,18.24,3.13,1,.3,1.33,8,.57,8.26C615.69,831.78,609.77,832.69,602.43,834.25Z"/><path d="M602.86,839.34h17.38c.8,4.66,1.62,9.41,2.44,14.2C607.09,855.76,603.35,853.06,602.86,839.34Z"/><path d="M652.65,819.67h19.68c.22,4.12.42,7.87.67,12.45H654C653.6,828.74,653.16,824.56,652.65,819.67Z"/><path d="M622.3,798.92c-.51,4.15-1,8.33-1.6,13.11H602.14C605.05,798.25,608.38,796.15,622.3,798.92Z"/></svg>