<svg id="Layer_1" data-name="Layer 1" xmlns="http://www.w3.org/2000/svg" viewBox="0 0 1080 1080"><title>vpo-icon</title><path d="M632.6,669.52c1.8,10,6.37,18.11,15.78,22.16,25.42,11,51.15,21.22,76.53,32.28,17.05,7.43,34,15.14,50.45,23.82,42.2,22.29,62.11,58.38,63.4,105.41.21,7.93.17,15.88,0,23.81-.39,19.77-1.75,21.12-21,21.12q-119.14.06-238.28.07-158.46,0-316.92,0c-20.41,0-22.08-1.31-21.37-21.64.68-19.32.31-39.09,4.38-57.8,7.92-36.42,33.27-59.93,65.85-75,35.86-16.59,72.66-31.12,109-46.57,12.52-5.32,22.89-12.65,25.44-27.58-20.19-4.1-40.6-7-60.26-12.59a434.36,434.36,0,0,1-56.6-20.95c-13.45-5.94-14.37-12.24-6.16-24.42,14.84-22,24.08-46,27.6-69.23-14-8.38-26.48-15.33-38.31-23.31-4-2.7-6.77-7.72-9.18-12.17-17.91-33-7.34-84.81,21.38-109,3.17-2.66,4.49-8.68,4.88-13.29,7.3-86.54,46.54-152.79,128.21-186.26,127.34-52.19,270,22.06,289.35,164,.54,3.93,1.95,7.87,1.76,11.74-.65,13.52,4,22.83,15.25,31.83,8.48,6.8,15.62,19.33,16.95,30.09,2.39,19.35,1.69,39.52-.92,58.92-2.75,20.45-16.82,33.83-36.44,39.9-11.42,3.53-14.76,11-11.16,20.61,7,18.76,14.61,37.44,23.78,55.23,7.12,13.83,7.06,19.78-7,26.42a327.22,327.22,0,0,1-103.43,29.55c-3.16.35-6.33.61-9.45,1.11C635.05,668,634.07,668.8,632.6,669.52Zm-4.7-76.8c-17.07,2.42-36.45-7.74-50.52,10.34-2.18,2.79-7.91,3.62-12.09,3.87a245.33,245.33,0,0,1-28.57.08c-13.2-.78-24.27-11.57-25.61-24-1.28-12,6.53-25.46,19-28.05,11.4-2.37,23.55-2.21,35.27-1.54,5.47.31,12.63,3.06,15.66,7.18,5.72,7.77,12.58,8.42,20.71,8,5.15-.26,10.32,0,15.48-.07,32.22-.24,31.75-.39,41-31.14s7.33-62,7.06-93.23c0-2.94-4.33-6.49-7.43-8.64-12.9-9-27.41-16.06-38.85-26.54-12.6-11.56-22.48-26.08-34-39.87-21,23.59-46.33,43.1-77.25,52.22-30.42,9-61.94,14.16-94.51,21.35,0,15.38-1.2,33.66.23,51.73,4.2,53,24.55,98,68.64,130,19.11,13.88,40.57,21.56,64.62,19.37C582.11,640.59,607.32,620.71,627.9,592.72ZM373.07,393.38c9.36-103.31,87-155.16,158.15-158.33,38.61-1.72,74.11,7.77,105.24,30.47,43.26,31.53,65.63,75.17,69.39,128.88l18.84-4.3C723,293.41,647.78,202.08,530,206.9,422.3,211.31,354.12,302,355.07,390.56ZM460.4,704c40.46,35.36,124.38,35,158.33-.2L600.9,651.49c-40.43,23.94-82.9,22.47-123.38-.1C471.82,668.91,466.37,685.62,460.4,704Z"/></svg>